<svg width="18" height="18" viewBox="0 0 18 18" fill="none" xmlns="http://www.w3.org/2000/svg">
<path id="&#240;&#159;&#142;&#168; Icon &#208;&#161;olor" fill-rule="evenodd" clip-rule="evenodd" d="M13.6291 1.21535V2.09768H14.555C16.0865 2.09768 17.3328 3.28531 17.3328 4.7447V15.3327C17.3328 16.7921 16.0865 17.9798 14.555 17.9798H3.44411C1.91266 17.9798 0.666382 16.7921 0.666382 15.3327V4.7447C0.666382 3.28531 1.91266 2.09768 3.44411 2.09768H4.37002V1.21535C4.37002 0.73006 4.78668 0.333008 5.29593 0.333008C5.80518 0.333008 6.22184 0.73006 6.22184 1.21535V2.09768H11.7773V1.21535C11.7773 0.73006 12.194 0.333008 12.7032 0.333008C13.2125 0.333008 13.6291 0.73006 13.6291 1.21535ZM2.51838 16.2082H15.4811V4.74472C15.4811 4.25855 15.0654 3.86238 14.5552 3.86238H13.6293V4.74472C13.6293 5.23 13.2126 5.62705 12.7034 5.62705C12.1941 5.62705 11.7775 5.23 11.7775 4.74472V3.86238H6.22202V4.74472C6.22202 5.23 5.80536 5.62705 5.29611 5.62705C4.78686 5.62705 4.3702 5.23 4.3702 4.74472V3.86238H3.44429C2.93412 3.86238 2.51838 4.25855 2.51838 4.74472V16.2082ZM8.99933 13.5681H12.703C13.2122 13.5681 13.6289 13.171 13.6289 12.6857C13.6289 12.2004 13.2122 11.8034 12.703 11.8034H8.99933C8.49008 11.8034 8.07342 12.2004 8.07342 12.6857C8.07342 13.171 8.49008 13.5681 8.99933 13.5681ZM5.29632 13.5681C4.78707 13.5681 4.37041 13.171 4.37041 12.6857C4.37041 12.2004 4.78707 11.8034 5.29632 11.8034C5.80557 11.8034 6.22223 12.2004 6.22223 12.6857C6.22223 13.171 5.80557 13.5681 5.29632 13.5681Z" fill="#32213B" fill-opacity="0.8"/>
</svg>
